<svg width="80" height="80" viewBox="0 0 80 80" fill="none" xmlns="http://www.w3.org/2000/svg">
<circle cx="40" cy="40" r="40" fill="white"/>
<path d="M54.1359 25.8626C50.3587 22.0854 45.3419 20 39.9985 20C34.6551 20 29.6384 22.0854 25.8612 25.8626C18.5747 33.1491 18.0471 44.7906 24.5379 52.6801C23.6417 54.5142 22.5865 55.737 21.3888 56.3233C20.6602 56.6834 20.2498 57.4707 20.367 58.2747C20.4927 59.0871 21.1124 59.7152 21.9248 59.8409C22.3687 59.9079 22.8461 59.9497 23.3402 59.9497C25.7942 59.9497 28.3737 59.1039 30.5262 57.6214C33.424 59.1792 36.6819 60 39.9985 60C45.3419 60 50.3587 57.923 54.1359 54.1457C57.9131 50.3685 59.9901 45.3434 59.9901 40.0084C59.9901 34.6734 57.9131 29.6399 54.1359 25.8626ZM52.5362 52.5377C49.1861 55.8878 44.7305 57.7303 39.9985 57.7303C36.8327 57.7303 33.7255 56.8844 31.0203 55.2931C30.8444 55.1926 30.6434 55.134 30.4508 55.134C30.2079 55.134 29.9566 55.2178 29.7556 55.3685C27.1928 57.3534 24.6133 57.6466 23.4826 57.6717C24.831 56.6667 25.9617 55.1089 26.9081 52.9397C27.0839 52.5377 27.0086 52.0687 26.7154 51.7337C20.5178 44.732 20.8444 34.062 27.4608 27.4456C30.8109 24.0955 35.2665 22.2529 39.9985 22.2529C44.7305 22.2529 49.1861 24.0955 52.5362 27.4456C59.4541 34.3719 59.4541 45.6281 52.5362 52.5377Z" fill="#8C52FF"/>
<path d="M48.3736 33.4003H31.6232C30.9951 33.4003 30.4926 33.9028 30.4926 34.531C30.4926 35.1591 30.9951 35.6616 31.6232 35.6616H48.3736C49.0018 35.6616 49.5043 35.1591 49.5043 34.531C49.5043 33.9028 48.9934 33.4003 48.3736 33.4003Z" fill="#8C52FF"/>
<path d="M48.3736 38.8694H31.6232C30.9951 38.8694 30.4926 39.3719 30.4926 40C30.4926 40.6282 30.9951 41.1307 31.6232 41.1307H48.3736C49.0018 41.1307 49.5043 40.6282 49.5043 40C49.5043 39.3719 48.9934 38.8694 48.3736 38.8694Z" fill="#8C52FF"/>
<path d="M48.3736 44.3384H31.6232C30.9951 44.3384 30.4926 44.8409 30.4926 45.469C30.4926 46.0972 30.9951 46.5997 31.6232 46.5997H48.3736C49.0018 46.5997 49.5043 46.0972 49.5043 45.469C49.5043 44.8409 48.9934 44.3384 48.3736 44.3384Z" fill="#8C52FF"/>
</svg>
