<svg width="40" height="40" viewBox="0 0 40 40" fill="none" xmlns="http://www.w3.org/2000/svg">
<path d="M34.1359 5.86265C30.3587 2.08543 25.3419 0 19.9985 0C14.6551 0 9.63839 2.08543 5.86117 5.86265C-1.42527 13.1491 -1.9529 24.7906 4.53788 32.6801C3.64174 34.5142 2.58646 35.737 1.38881 36.3233C0.660162 36.6834 0.249777 37.4707 0.36703 38.2747C0.492658 39.0871 1.11242 39.7152 1.92482 39.8409C2.3687 39.9079 2.84609 39.9497 3.34023 39.9497C5.79416 39.9497 8.37373 39.1039 10.5262 37.6214C13.424 39.1792 16.6819 40 19.9985 40C25.3419 40 30.3587 37.923 34.1359 34.1457C37.9131 30.3685 39.9901 25.3434 39.9901 20.0084C39.9901 14.6734 37.9131 9.63987 34.1359 5.86265ZM32.5362 32.5377C29.1861 35.8878 24.7305 37.7303 19.9985 37.7303C16.8327 37.7303 13.7255 36.8844 11.0203 35.2931C10.8444 35.1926 10.6434 35.134 10.4508 35.134C10.2079 35.134 9.95664 35.2178 9.75564 35.3685C7.19282 37.3534 4.61326 37.6466 3.48261 37.6717C4.83102 36.6667 5.96167 35.1089 6.90807 32.9397C7.08395 32.5377 7.00857 32.0687 6.71544 31.7337C0.517783 24.732 0.844416 14.062 7.46083 7.44556C10.8109 4.09548 15.2665 2.25293 19.9985 2.25293C24.7305 2.25293 29.1861 4.09548 32.5362 7.44556C39.4541 14.3719 39.4541 25.6281 32.5362 32.5377Z" fill="#8C52FF"/>
<path d="M28.3738 13.4004H11.6233C10.9952 13.4004 10.4927 13.9029 10.4927 14.531C10.4927 15.1592 10.9952 15.6617 11.6233 15.6617H28.3738C29.0019 15.6617 29.5044 15.1592 29.5044 14.531C29.5044 13.9029 28.9935 13.4004 28.3738 13.4004Z" fill="#8C52FF"/>
<path d="M28.3738 18.8694H11.6233C10.9952 18.8694 10.4927 19.3719 10.4927 20C10.4927 20.6282 10.9952 21.1307 11.6233 21.1307H28.3738C29.0019 21.1307 29.5044 20.6282 29.5044 20C29.5044 19.3719 28.9935 18.8694 28.3738 18.8694Z" fill="#8C52FF"/>
<path d="M28.3738 24.3384H11.6233C10.9952 24.3384 10.4927 24.8409 10.4927 25.469C10.4927 26.0972 10.9952 26.5997 11.6233 26.5997H28.3738C29.0019 26.5997 29.5044 26.0972 29.5044 25.469C29.5044 24.8409 28.9935 24.3384 28.3738 24.3384Z" fill="#8C52FF"/>
</svg>
