<svg width="40" height="40" viewBox="0 0 40 40" fill="none" xmlns="http://www.w3.org/2000/svg">
<circle opacity="0.5" cx="20" cy="20" r="19.5" stroke="white"/>
<g clip-path="url(#clip0)">
<path fill-rule="evenodd" clip-rule="evenodd" d="M28 27.117C28 27.6046 27.6047 28 27.117 28V27.9999H23.0398H12.8832C12.3954 27.9999 12.0001 27.6046 12.0001 27.1169V12.883C12.0001 12.3953 12.3954 12 12.8832 12H27.117C27.6046 12 28 12.3952 28 12.883V27.117ZM23.0398 21.8039V27.9999H20.5461V21.8039H18.461V19.3892H20.5461V17.6084C20.5461 15.5418 21.8082 14.4165 23.6518 14.4165C24.5348 14.4165 25.2939 14.4823 25.5151 14.5117V16.6714L24.2364 16.672C23.2338 16.672 23.0397 17.1484 23.0397 17.8475V19.3892H25.4309L25.1195 21.8039H23.0398Z" fill="white"/>
</g>
<defs>
<clipPath id="clip0">
<rect width="16" height="16" fill="white" transform="translate(12 12)"/>
</clipPath>
</defs>
</svg>
