<svg width="24" height="24" viewBox="0 0 24 24" fill="none" xmlns="http://www.w3.org/2000/svg">
<path d="M23.4392 12.2247C23.4392 11.2414 23.3594 10.5239 23.1867 9.77979H11.9587V14.2178H18.5493C18.4165 15.3207 17.699 16.9816 16.1044 18.0977L16.0821 18.2463L19.6321 20.9965L19.8781 21.021C22.1369 18.9349 23.4392 15.8654 23.4392 12.2247Z" fill="#8C52FF"/>
<path d="M11.9587 23.9174C15.1876 23.9174 17.8982 22.8544 19.8781 21.0207L16.1044 18.0974C15.0946 18.8016 13.7392 19.2933 11.9587 19.2933C8.79634 19.2933 6.11229 17.2072 5.1555 14.3237L5.01526 14.3356L1.32385 17.1925L1.27557 17.3267C3.2421 21.2333 7.28151 23.9174 11.9587 23.9174Z" fill="#8C52FF"/>
<path d="M5.15551 14.3238C4.90305 13.5797 4.75695 12.7824 4.75695 11.9586C4.75695 11.1347 4.90305 10.3375 5.14223 9.59342L5.13554 9.43494L1.39786 6.53223L1.27557 6.59039C0.465069 8.21149 0 10.0319 0 11.9586C0 13.8853 0.465069 15.7056 1.27557 17.3267L5.15551 14.3238Z" fill="#8C52FF"/>
<path d="M11.9588 4.62403C14.2044 4.62403 15.7191 5.59402 16.5829 6.40461L19.9579 3.10928C17.8851 1.1826 15.1877 0 11.9588 0C7.28155 0 3.24211 2.68406 1.27557 6.59056L5.14224 9.59359C6.11232 6.7102 8.79639 4.62403 11.9588 4.62403Z" fill="#8C52FF"/>
</svg>
