<svg width="80" height="80" viewBox="0 0 80 80" fill="none" xmlns="http://www.w3.org/2000/svg">
<path d="M54.148 32.5085C54.4592 31.7446 54.6166 30.9368 54.6166 30.0995C54.6166 29.9298 54.6098 29.7582 54.5966 29.5898C54.5719 29.2764 54.2976 29.0426 53.9844 29.067C53.671 29.0917 53.4369 29.3658 53.4616 29.6792C53.4724 29.818 53.478 29.9595 53.478 30.0995C53.478 30.9514 53.2801 31.7661 52.8896 32.5209C52.8166 32.6618 52.8059 32.8267 52.8598 32.9759C52.9137 33.1252 53.0275 33.2451 53.1736 33.3068C55.3966 34.2464 56.833 36.4128 56.833 38.8259C56.833 42.0341 54.3226 44.6603 51.1178 44.8048C50.8715 44.8159 50.6603 44.9844 50.5948 45.222C50.1705 46.7587 48.4662 47.874 46.5423 47.874C45.6255 47.874 44.7512 47.63 44.0309 47.1795L45.9117 44.2116C46.0435 44.0036 46.1112 43.773 46.1182 43.5434C46.1298 43.1605 45.973 42.7802 45.6634 42.5109C45.1398 42.0553 44.3476 42.0854 43.8598 42.5791L42.4485 44.008L42.9087 40.5994C42.9573 40.239 42.8533 39.8708 42.6234 39.5891C42.4222 39.3427 42.1368 39.1775 41.8255 39.1236C41.7811 39.1159 41.7361 39.1105 41.6908 39.1074L41.1823 39.073C40.9294 39.0559 40.6874 39.1109 40.4777 39.2215C40.1282 39.4057 39.868 39.7443 39.7948 40.1601L39.3496 42.6894L38.9045 45.2186L36.1559 41.8384C36.0647 41.7262 35.9572 41.6323 35.839 41.5578C35.8383 41.5573 35.8376 41.5568 35.8369 41.5563C35.8241 41.5484 35.8108 41.5415 35.7978 41.5339C35.6287 41.4357 35.4401 41.3752 35.2461 41.358C35.2399 41.3574 35.2336 41.3575 35.2274 41.357C35.1988 41.3549 35.1702 41.3531 35.1415 41.3528C34.9663 41.3511 34.7894 41.3841 34.622 41.4546L34.0908 41.6779C33.738 41.8261 33.4675 42.1197 33.3484 42.4833C33.2294 42.847 33.274 43.2437 33.4709 43.5719L35.7207 47.3219C35.0496 47.6803 34.2639 47.8741 33.4584 47.8741C31.5344 47.8741 29.8301 46.7587 29.4059 45.2222C29.3402 44.9845 29.1291 44.8161 28.8828 44.805C25.678 44.6605 23.1677 42.0342 23.1677 38.826C23.1677 36.4128 24.6041 34.2464 26.827 33.3069C26.9731 33.2452 27.0869 33.1252 27.1408 32.976C27.1947 32.8268 27.1839 32.6619 27.111 32.521C26.7205 31.7662 26.5226 30.9515 26.5226 30.0996C26.5226 27.1883 28.8912 24.8197 31.8025 24.8197C32.614 24.8197 33.393 24.9994 34.1179 25.3538C34.2697 25.428 34.4467 25.4309 34.601 25.3617C34.7552 25.2925 34.8707 25.1584 34.9162 24.9955C35.5504 22.7247 37.6412 21.1387 40.0005 21.1387C42.3598 21.1387 44.4505 22.7247 45.0848 24.9955C45.1303 25.1584 45.2458 25.2926 45.3999 25.3617C45.5541 25.431 45.7312 25.4281 45.883 25.3538C46.6079 24.9994 47.387 24.8197 48.1984 24.8197C50.1446 24.8197 51.9273 25.8852 52.8509 27.6006C52.9998 27.8774 53.3452 27.981 53.622 27.832C53.8988 27.683 54.0023 27.3377 53.8533 27.0609C52.7309 24.9762 50.5641 23.6812 48.1984 23.6812C47.4298 23.6812 46.6849 23.8139 45.9762 24.0766C45.0229 21.6471 42.651 20 40.0001 20C37.3492 20 34.9773 21.6471 34.0243 24.0765C33.3156 23.8138 32.5708 23.6811 31.8021 23.6811C28.2629 23.6811 25.3836 26.5604 25.3836 30.0995C25.3836 30.9368 25.5409 31.7447 25.8522 32.5085C23.5114 33.7314 22.0287 36.1513 22.0287 38.8259C22.0287 42.5118 24.8124 45.5523 28.4365 45.9137C29.149 47.757 31.1513 49.0125 33.458 49.0125C34.4692 49.0125 35.4595 48.7614 36.3062 48.2983L36.5883 48.7684C36.9731 49.41 37.1324 50.1698 37.0367 50.9082C36.9539 51.5466 36.852 52.2983 36.7227 53.0341C36.6683 53.3438 36.8752 53.6388 37.1848 53.6932C37.4949 53.7477 37.7896 53.5406 37.844 53.231C37.9772 52.473 38.0814 51.7055 38.1658 51.0545C38.2943 50.063 38.0809 49.043 37.5646 48.1827L34.4469 42.986C34.41 42.9246 34.4205 42.8665 34.4302 42.8373C34.4397 42.808 34.4656 42.755 34.5316 42.7273L35.0628 42.504C35.1359 42.4732 35.2222 42.4948 35.2723 42.5564L38.3062 46.2877C38.3143 46.2975 38.3228 46.3067 38.3312 46.3162C38.4439 46.4443 38.5841 46.5364 38.7383 46.587C38.902 46.6407 39.0809 46.6477 39.2579 46.603C39.2598 46.6025 39.2618 46.6022 39.2638 46.6016C39.2638 46.6016 39.2638 46.6016 39.2639 46.6016H39.264C39.4359 46.557 39.5855 46.4677 39.7018 46.347C39.7063 46.3423 39.7112 46.3378 39.7157 46.333C39.7198 46.3286 39.7235 46.3238 39.7275 46.3193C39.8391 46.1934 39.9164 46.0369 39.9473 45.8613L40.9159 40.3575C40.9319 40.2666 41.0155 40.203 41.1055 40.209L41.614 40.2434C41.6817 40.248 41.7229 40.2866 41.7413 40.3092C41.7598 40.3318 41.7894 40.3798 41.7802 40.4472L41.2375 44.4682C41.2308 44.518 41.2281 44.5675 41.2294 44.6165C41.2378 44.9594 41.435 45.2745 41.7502 45.4293C41.7727 45.4404 41.7955 45.4505 41.8186 45.4595C41.9337 45.5052 42.0545 45.5266 42.1741 45.5249C42.4133 45.5216 42.648 45.4262 42.8243 45.2477L44.6698 43.3793C44.7016 43.347 44.7431 43.3296 44.7855 43.3267C44.7873 43.3266 44.7891 43.3261 44.791 43.326C44.792 43.326 44.7929 43.3262 44.7938 43.3262C44.8262 43.3255 44.8587 43.3331 44.8877 43.3498C44.8976 43.3555 44.9071 43.3622 44.9161 43.37C44.9837 43.4288 44.9979 43.5266 44.95 43.6023L42.444 47.5566C41.9177 48.3873 41.6746 49.3861 41.7598 50.3691C41.9982 53.1229 42.4114 56.228 44.207 58.8615H35.7894C36.432 57.9087 36.9312 56.8247 37.3045 55.5769C37.3945 55.2757 37.2234 54.9584 36.9222 54.8684C36.6209 54.7783 36.3037 54.9494 36.2137 55.2506C35.7584 56.7727 35.1027 58.0188 34.2092 59.0601C34.0645 59.2288 34.0312 59.4665 34.1241 59.6685C34.217 59.8705 34.4189 60 34.6412 60H45.3588C45.5812 60 45.7832 59.8705 45.876 59.6685C45.9689 59.4665 45.9356 59.2288 45.7909 59.0602C43.5987 56.505 43.1461 53.1835 42.8938 50.2709C42.8302 49.5348 43.0118 48.7873 43.4055 48.1661L43.4214 48.1409C44.3232 48.706 45.4095 49.0126 46.542 49.0126C48.8487 49.0126 50.851 47.7571 51.5635 45.9137C55.1876 45.5523 57.9712 42.5118 57.9712 38.826C57.9714 36.1513 56.4887 33.7314 54.148 32.5085Z" fill="white"/>
<path d="M54.6166 30.0995C54.6166 30.9368 54.4592 31.7446 54.148 32.5085C56.4887 33.7314 57.9714 36.1513 57.9712 38.826C57.9712 42.5118 55.1876 45.5523 51.5635 45.9137C50.851 47.7571 48.8487 49.0126 46.542 49.0126C45.4095 49.0126 44.3232 48.706 43.4214 48.1409L43.4055 48.1661L43.4214 48.1409C43.4214 48.1409 43.4214 48.1409 43.4214 48.1409L44.0309 47.1795C44.7512 47.63 45.6255 47.874 46.5423 47.874C48.4662 47.874 50.1705 46.7587 50.5948 45.222C50.6603 44.9844 50.8715 44.8159 51.1178 44.8048C54.3226 44.6603 56.833 42.0341 56.833 38.8259C56.833 36.4128 55.3966 34.2464 53.1736 33.3068C53.0275 33.2451 52.9137 33.1252 52.8598 32.9759C52.8059 32.8267 52.8166 32.6618 52.8896 32.5209C53.2801 31.7661 53.478 30.9514 53.478 30.0995C53.478 29.9595 53.4724 29.818 53.4616 29.6792C53.4369 29.3658 53.671 29.0917 53.9844 29.067C54.2976 29.0426 54.5719 29.2764 54.5966 29.5898C54.6098 29.7582 54.6166 29.9298 54.6166 30.0995Z" fill="#1AD5B1"/>
<path d="M33.4584 47.8741C34.2639 47.8741 35.0496 47.6803 35.7207 47.3219L36.3062 48.2983C35.4595 48.7614 34.4692 49.0125 33.458 49.0125C31.1513 49.0125 29.149 47.757 28.4365 45.9137C24.8124 45.5523 22.0287 42.5118 22.0287 38.8259C22.0287 36.1513 23.5114 33.7314 25.8522 32.5085C25.5409 31.7447 25.3836 30.9368 25.3836 30.0995C25.3836 26.5604 28.2629 23.6811 31.8021 23.6811C32.5708 23.6811 33.3156 23.8138 34.0243 24.0765C34.9773 21.6471 37.3492 20 40.0001 20C42.651 20 45.0229 21.6471 45.9762 24.0766C46.6849 23.8139 47.4298 23.6812 48.1984 23.6812C50.5641 23.6812 52.7309 24.9762 53.8533 27.0609C54.0023 27.3377 53.8988 27.683 53.622 27.832C53.3452 27.981 52.9998 27.8774 52.8509 27.6006C51.9273 25.8852 50.1446 24.8197 48.1984 24.8197C47.387 24.8197 46.6079 24.9994 45.883 25.3538C45.7312 25.4281 45.5541 25.431 45.3999 25.3617C45.2458 25.2926 45.1303 25.1584 45.0848 24.9955C44.4505 22.7247 42.3598 21.1387 40.0005 21.1387C37.6412 21.1387 35.5504 22.7247 34.9162 24.9955C34.8707 25.1584 34.7552 25.2925 34.601 25.3617C34.4467 25.4309 34.2697 25.428 34.1179 25.3538C33.393 24.9994 32.614 24.8197 31.8025 24.8197C28.8912 24.8197 26.5226 27.1883 26.5226 30.0996C26.5226 30.9515 26.7205 31.7662 27.111 32.521C27.1839 32.6619 27.1947 32.8268 27.1408 32.976C27.0869 33.1252 26.9731 33.2452 26.827 33.3069C24.6041 34.2464 23.1677 36.4128 23.1677 38.826C23.1677 42.0342 25.678 44.6605 28.8828 44.805C29.1291 44.8161 29.3402 44.9845 29.4059 45.2222C29.8301 46.7587 31.5344 47.8741 33.4584 47.8741Z" fill="#1AD5B1"/>
<circle opacity="0.5" cx="40" cy="40" r="39" stroke="white" stroke-width="2"/>
</svg>
