<svg width="80" height="80" viewBox="0 0 80 80" fill="none" xmlns="http://www.w3.org/2000/svg">
<g clip-path="url(#clip0)">
<path d="M49.6059 37.0217C49.3004 36.7162 48.8059 36.7162 48.5004 37.0217C48.1957 37.3264 48.1957 37.8209 48.5004 38.1264C48.8059 38.4318 49.3004 38.4318 49.6059 38.1264C49.9107 37.8209 49.9107 37.3264 49.6059 37.0217Z" fill="#1AD5B1"/>
<path d="M59.3092 25.1085L54.8896 20.6889C53.9736 19.7731 52.4914 19.7728 51.5753 20.6889L50.1581 22.1061C49.577 22.6872 49.3546 23.5054 49.5299 24.2829L43.1228 25.4134C41.6939 25.6663 40.3974 26.3417 39.374 27.3661L38.0043 28.735C37.1022 29.637 36.7347 30.8741 36.9011 32.0493C35.7171 31.8821 34.4903 32.2497 33.5856 33.1543C32.6823 34.0571 32.3129 35.2829 32.48 36.4694C31.2965 36.3029 30.07 36.67 29.166 37.574C28.2884 38.4516 27.8886 39.6668 28.0613 40.8903C26.8859 40.7237 25.6487 41.0913 24.7465 41.9934L21.5988 45.1403C19.467 47.2723 19.467 50.7419 21.5989 52.8749L27.1232 58.3992C29.2558 60.5307 32.7252 60.5313 34.8577 58.399L38.0045 55.2514C38.9067 54.3492 39.2743 53.1118 39.1075 51.9363C40.3256 52.1081 41.5429 51.7129 42.4239 50.8319C43.3258 49.9301 43.6933 48.693 43.5268 47.5175C44.7384 47.6886 45.9576 47.2992 46.8435 46.4124C47.7455 45.5105 48.113 44.2735 47.9466 43.0984C49.1696 43.271 50.3851 42.8716 51.2633 41.9935L52.6316 40.6244C53.6564 39.6005 54.3317 38.304 54.5846 36.8747L55.7151 30.4681C56.4911 30.643 57.3096 30.4222 57.892 29.8399L59.3091 28.4227C60.2252 27.5068 60.2253 26.0245 59.3092 25.1085ZM36.8996 54.1465L33.7528 57.2941C32.23 58.817 29.7514 58.8169 28.228 57.2941L22.7039 51.7701C21.181 50.2465 21.181 47.768 22.7037 46.2452L25.8515 43.0983C26.7653 42.1844 28.2522 42.1844 29.1661 43.0983L36.8997 50.8318C37.8136 51.7457 37.8136 53.2326 36.8996 54.1465ZM41.319 49.727C40.4056 50.6404 38.9217 50.6443 38.0044 49.727L30.2709 41.9935C29.3552 41.0777 29.3549 39.5948 30.271 38.6788C31.186 37.7636 32.6679 37.7633 33.5849 38.6783C33.5852 38.6785 33.5853 38.6786 33.5855 38.6789L41.3188 46.412L41.3189 46.4121C41.3189 46.4121 41.3189 46.4121 41.3189 46.4122C42.2325 47.3265 42.2327 48.8134 41.319 49.727ZM45.7384 45.3078C44.8234 46.2238 43.3394 46.224 42.424 45.3075L34.6902 37.5738C33.774 36.6582 33.7735 35.1755 34.6905 34.2593C35.6068 33.343 37.0879 33.3428 38.0044 34.2593L45.7387 41.9936C46.6524 42.9072 46.6524 44.3938 45.7384 45.3078ZM53.046 36.6029C52.8493 37.7145 52.3241 38.7229 51.5268 39.5195L50.1582 40.8888C49.2444 41.8027 47.7574 41.8027 46.8435 40.8888L39.1092 33.1545C38.1954 32.2406 38.1954 30.7537 39.109 29.8399L40.4789 28.4708C41.275 27.6739 42.2835 27.1488 43.3947 26.9521L50.4458 25.7079L54.29 29.5523L53.046 36.6029ZM58.2043 27.3178L56.7871 28.735C56.4818 29.0403 55.988 29.0403 55.6826 28.735L51.2631 24.3154C50.9579 24.0101 50.9578 23.5163 51.2632 23.2109L52.6804 21.7937C52.9857 21.4884 53.4796 21.4885 53.7849 21.7937L58.2043 26.2133C58.5091 26.5182 58.5102 27.0118 58.2043 27.3178Z" fill="white"/>
<path d="M47.396 34.8115L43.6242 31.0396C43.319 30.7345 42.8245 30.7345 42.5192 31.0396C42.2142 31.3447 42.2142 31.8394 42.5192 32.1444L46.2911 35.9163C46.5962 36.2214 47.0908 36.2214 47.396 35.9163C47.7011 35.6111 47.7011 35.1165 47.396 34.8115Z" fill="#1AD5B1"/>
</g>
<circle opacity="0.5" cx="40" cy="40" r="39" stroke="white" stroke-width="2"/>
<defs>
<clipPath id="clip0">
<rect width="40" height="40" fill="white" transform="translate(20 20)"/>
</clipPath>
</defs>
</svg>
