<svg width="80" height="80" viewBox="0 0 80 80" fill="none" xmlns="http://www.w3.org/2000/svg">
<path d="M55.5312 55.0626H53.996V48.6195C54.3028 48.3498 54.497 47.9549 54.497 47.5152C54.497 46.7042 53.8372 46.0444 53.0263 46.0444H49.9596L49.486 38.4678C49.4706 38.2207 49.2657 38.0283 49.0182 38.0283H47.0141C46.7666 38.0283 46.5618 38.2207 46.5463 38.4678L46.0728 46.0444H44.9494L44.4759 38.4678C44.4604 38.2207 44.2556 38.0283 44.0081 38.0283H42.0041C41.7566 38.0283 41.5517 38.2207 41.5362 38.4678L41.0627 46.0444H39.9394L39.4658 38.4678C39.4504 38.2207 39.2455 38.0283 38.998 38.0283H36.994C36.7465 38.0283 36.5416 38.2207 36.5262 38.4678L36.0526 46.0444H34.747L34.4566 32.9755C34.451 32.7208 34.2428 32.5172 33.988 32.5172H30.9819C30.7271 32.5172 30.5189 32.7208 30.5133 32.9755L30.1784 48.0485H26.4727C25.6617 48.0485 25.002 48.7083 25.002 49.5192C25.002 49.9589 25.1962 50.3539 25.503 50.6236V55.0626H24.4688C24.2099 55.0626 24 55.2724 24 55.5313C24 55.7902 24.2099 56.0001 24.4688 56.0001H55.5312C55.7901 56.0001 56 55.7902 56 55.5313C56 55.2724 55.7901 55.0626 55.5312 55.0626ZM30.1337 50.0525H28.477C28.2181 50.0525 28.0083 50.2624 28.0083 50.5213C28.0083 50.7802 28.2181 50.99 28.477 50.99H30.1129L30.0224 55.0626H26.4405V50.9892C26.4513 50.9894 26.4619 50.99 26.4727 50.99C26.7316 50.99 26.9415 50.7801 26.9415 50.5212C26.9415 50.2624 26.7316 50.0525 26.4727 50.0525C26.1787 50.0525 25.9395 49.8132 25.9395 49.5192C25.9395 49.2252 26.1788 48.986 26.4727 48.986H30.1574L30.1337 50.0525ZM47.4544 38.9658H48.5777L49.0202 46.0444H47.0121L47.4544 38.9658ZM42.4444 38.9658H43.5677L44.0101 46.0444H42.002L42.4444 38.9658ZM37.4343 38.9658H38.5576L39 46.0444H36.9919L37.4343 38.9658ZM32.0162 55.0626H30.9602L31.4402 33.4547H33.5294L33.8092 46.0444H32.9859C32.1749 46.0444 31.5151 46.7042 31.5151 47.5152C31.5151 47.9549 31.7093 48.3498 32.0162 48.6195V55.0626ZM53.0263 48.0484H52.0243C51.7654 48.0484 51.5555 48.2583 51.5555 48.5172C51.5555 48.776 51.7654 48.9859 52.0243 48.9859H53.0263C53.0371 48.9859 53.0478 48.9853 53.0585 48.9851V55.0626H32.9536V48.9851C32.9644 48.9854 32.9751 48.9859 32.9859 48.9859H50.0206C50.2794 48.9859 50.4893 48.776 50.4893 48.5172C50.4893 48.2583 50.2794 48.0484 50.0206 48.0484H32.9859C32.6918 48.0484 32.4526 47.8092 32.4526 47.5152C32.4526 47.2212 32.6918 46.9819 32.9859 46.9819H53.0262C53.3202 46.9819 53.5595 47.2211 53.5595 47.5152C53.5595 47.8092 53.3203 48.0484 53.0263 48.0484Z" fill="white"/>
<path d="M50.0202 24C48.6081 24 47.2618 24.4928 46.1856 25.3959C45.413 24.8161 44.4766 24.501 43.5071 24.501C42.3301 24.501 41.2065 24.9657 40.3713 25.7873C39.9383 25.6006 39.47 25.503 38.998 25.503C37.6044 25.503 36.3621 26.3374 35.8168 27.5863C35.6287 27.5336 35.4361 27.507 35.2405 27.507C34.2721 27.507 33.4395 28.1367 33.142 29.0188C33.0902 29.013 33.0381 29.0101 32.9859 29.0101C32.1749 29.0101 31.5151 29.6699 31.5151 30.4808C31.5151 30.7397 31.725 30.9496 31.9839 30.9496C32.2428 30.9496 32.4526 30.7397 32.4526 30.4809C32.4526 30.1868 32.6919 29.9476 32.986 29.9476C33.079 29.9476 33.1701 29.9739 33.2569 30.0259C33.3974 30.1099 33.5715 30.1146 33.7163 30.0382C33.8611 29.9619 33.9556 29.8155 33.9655 29.6521C34.0065 28.975 34.5666 28.4446 35.2404 28.4446C35.4535 28.4446 35.6638 28.5022 35.8654 28.6157C35.9917 28.6869 36.144 28.6956 36.2777 28.6391C36.4114 28.5827 36.5113 28.4676 36.5485 28.3273C36.8428 27.2164 37.8501 26.4406 38.998 26.4406C39.433 26.4406 39.8639 26.5543 40.2441 26.7694C40.4385 26.8794 40.6837 26.837 40.8297 26.6679C41.5045 25.8866 42.4803 25.4386 43.507 25.4386C44.3848 25.4386 45.2288 25.7662 45.8835 26.3612C46.0661 26.5272 46.3463 26.5231 46.524 26.3518C47.4703 25.4398 48.7119 24.9375 50.0202 24.9375C52.8006 24.9375 55.0625 27.1995 55.0625 29.9798C55.0625 32.7601 52.8006 35.0221 50.0202 35.0221C48.1743 35.0221 46.4773 34.0142 45.5916 32.3918C45.4735 32.1754 45.208 32.0876 44.9841 32.1907C44.514 32.4072 44.017 32.5171 43.5071 32.5171C42.4804 32.5171 41.5045 32.069 40.8298 31.2877C40.6838 31.1187 40.4386 31.0762 40.2442 31.1862C39.864 31.4013 39.433 31.5151 38.998 31.5151C38.2059 31.5151 37.4729 31.1524 36.9871 30.52C36.8988 30.4052 36.7625 30.3376 36.6177 30.3368C36.6169 30.3368 36.6161 30.3368 36.6154 30.3368C36.4715 30.3368 36.3354 30.403 36.2465 30.5163C35.9985 30.8326 35.6318 31.014 35.2405 31.014C34.9816 31.014 34.7717 31.2239 34.7717 31.4827C34.7717 31.7416 34.9816 31.9515 35.2405 31.9515C35.7373 31.9515 36.2098 31.7855 36.5948 31.4844C37.238 32.1049 38.0893 32.4525 38.998 32.4525C39.47 32.4525 39.9383 32.3549 40.3713 32.1683C41.2065 32.9899 42.3301 33.4546 43.5071 33.4546C44.0123 33.4546 44.5069 33.3698 44.9825 33.2021C46.0778 34.913 47.9715 35.9596 50.0202 35.9596C53.3175 35.9596 56 33.2771 56 29.9798C56 26.6826 53.3175 24 50.0202 24Z" fill="white"/>
<path d="M35.9919 50.0525C35.7331 50.0525 35.5232 50.2624 35.5232 50.5212V51.5232C35.5232 51.7821 35.7331 51.992 35.9919 51.992C36.2508 51.992 36.4607 51.7821 36.4607 51.5232V50.5212C36.4607 50.2624 36.2508 50.0525 35.9919 50.0525Z" fill="#1AD5B1"/>
<path d="M37.996 50.0525C37.7371 50.0525 37.5272 50.2624 37.5272 50.5212V51.5232C37.5272 51.7821 37.7371 51.992 37.996 51.992C38.2548 51.992 38.4647 51.7821 38.4647 51.5232V50.5212C38.4647 50.2624 38.2548 50.0525 37.996 50.0525Z" fill="#1AD5B1"/>
<path d="M40 50.0525C39.7411 50.0525 39.5312 50.2624 39.5312 50.5212V51.5232C39.5312 51.7821 39.7411 51.992 40 51.992C40.2589 51.992 40.4688 51.7821 40.4688 51.5232V50.5212C40.4688 50.2624 40.2589 50.0525 40 50.0525Z" fill="#1AD5B1"/>
<path d="M42.004 50.0525C41.7452 50.0525 41.5353 50.2624 41.5353 50.5212V51.5232C41.5353 51.7821 41.7452 51.992 42.004 51.992C42.2629 51.992 42.4728 51.7821 42.4728 51.5232V50.5212C42.4728 50.2624 42.263 50.0525 42.004 50.0525Z" fill="#1AD5B1"/>
<path d="M44.0081 50.0525C43.7492 50.0525 43.5393 50.2624 43.5393 50.5212V51.5232C43.5393 51.7821 43.7492 51.992 44.0081 51.992C44.2669 51.992 44.4768 51.7821 44.4768 51.5232V50.5212C44.4768 50.2624 44.2669 50.0525 44.0081 50.0525Z" fill="#1AD5B1"/>
<path d="M46.0121 50.0525C45.7532 50.0525 45.5433 50.2624 45.5433 50.5212V51.5232C45.5433 51.7821 45.7532 51.992 46.0121 51.992C46.271 51.992 46.4808 51.7821 46.4808 51.5232V50.5212C46.4808 50.2624 46.271 50.0525 46.0121 50.0525Z" fill="#1AD5B1"/>
<path d="M48.0161 50.0525C47.7572 50.0525 47.5474 50.2624 47.5474 50.5212V51.5232C47.5474 51.7821 47.7572 51.992 48.0161 51.992C48.275 51.992 48.4849 51.7821 48.4849 51.5232V50.5212C48.4849 50.2624 48.275 50.0525 48.0161 50.0525Z" fill="#1AD5B1"/>
<path d="M50.0202 50.0525C49.7613 50.0525 49.5515 50.2624 49.5515 50.5212V51.5232C49.5515 51.7821 49.7613 51.992 50.0202 51.992C50.2791 51.992 50.489 51.7821 50.489 51.5232V50.5212C50.489 50.2624 50.2791 50.0525 50.0202 50.0525Z" fill="#1AD5B1"/>
<circle opacity="0.5" cx="40" cy="40" r="39" stroke="white" stroke-width="2"/>
</svg>
