<svg width="40" height="40" viewBox="0 0 40 40" fill="none" xmlns="http://www.w3.org/2000/svg">
<circle opacity="0.5" cx="20" cy="20" r="19.5" stroke="white"/>
<g clip-path="url(#clip0)">
<path fill-rule="evenodd" clip-rule="evenodd" d="M13.1778 12.0322C12.5275 12.0322 12 12.5437 12 13.1738V26.8271C12 27.4572 12.5276 27.9682 13.1778 27.9682H26.7582C27.4087 27.9682 27.936 27.4572 27.936 26.8269V13.1738C27.936 12.5437 27.4087 12.0322 26.7582 12.0322H13.1778ZM16.8429 18.1939V25.3684H14.4582V18.1939H16.8429ZM17 15.9751C17 16.6636 16.4824 17.2145 15.651 17.2145L15.6508 17.2144H15.6354C14.835 17.2144 14.3176 16.6635 14.3176 15.975C14.3176 15.2709 14.8507 14.7354 15.6668 14.7354C16.4824 14.7354 16.9845 15.2709 17 15.9751ZM20.5473 25.3684H18.1628L18.1627 25.3686C18.1627 25.3686 18.1941 18.8672 18.1629 18.1941H20.5475V19.2097C20.8645 18.7209 21.4318 18.0257 22.6967 18.0257C24.2656 18.0257 25.4418 19.0511 25.4418 21.2547V25.3684H23.0574V21.5306C23.0574 20.5661 22.7121 19.9082 21.8494 19.9082C21.1905 19.9082 20.7982 20.3519 20.6259 20.7805C20.5629 20.9334 20.5473 21.1481 20.5473 21.3623V25.3684Z" fill="white"/>
</g>
<defs>
<clipPath id="clip0">
<rect width="15.936" height="16" fill="white" transform="translate(12 12)"/>
</clipPath>
</defs>
</svg>
