<svg width="54" height="54" viewBox="0 0 54 54" fill="none" xmlns="http://www.w3.org/2000/svg">
<circle cx="27" cy="27" r="26" fill="#BA68D7" stroke="white" stroke-width="2"/>
<mask id="mask0" mask-type="alpha" maskUnits="userSpaceOnUse" x="2" y="2" width="50" height="50">
<circle cx="27" cy="27" r="24" fill="white" stroke="#1AD5B1" stroke-width="2"/>
</mask>
<g mask="url(#mask0)">
<path d="M26.4936 28.2425C26.5268 28.2425 26.5599 28.2425 26.5996 28.2425C26.6129 28.2425 26.6262 28.2425 26.6394 28.2425C26.6593 28.2425 26.6858 28.2425 26.7057 28.2425C28.6473 28.2094 30.2178 27.5268 31.3774 26.2214C33.9287 23.3454 33.5046 18.4152 33.4582 17.9447C33.2925 14.4127 31.6226 12.7229 30.2443 11.9344C29.2172 11.3446 28.0177 11.0265 26.6792 11H26.6328C26.6262 11 26.6129 11 26.6063 11H26.5665C25.831 11 24.3864 11.1193 23.0014 11.9078C21.6098 12.6964 19.9134 14.3862 19.7477 17.9447C19.7013 18.4152 19.2772 23.3454 21.8285 26.2214C22.9815 27.5268 24.552 28.2094 26.4936 28.2425ZM21.517 18.1104C21.517 18.0905 21.5236 18.0706 21.5236 18.0574C21.7423 13.3061 25.1153 12.7958 26.5599 12.7958H26.5864C26.5996 12.7958 26.6195 12.7958 26.6394 12.7958C28.4286 12.8356 31.4702 13.5645 31.6756 18.0574C31.6756 18.0772 31.6756 18.0971 31.6823 18.1104C31.6889 18.1568 32.1528 22.6629 30.0455 25.0352C29.2105 25.9762 28.0973 26.4401 26.6328 26.4533C26.6195 26.4533 26.6129 26.4533 26.5996 26.4533C26.5864 26.4533 26.5798 26.4533 26.5665 26.4533C25.1087 26.4401 23.9888 25.9762 23.1604 25.0352C21.0598 22.6761 21.5104 18.1501 21.517 18.1104Z" fill="white"/>
<path d="M40.2174 36.4197C40.2174 36.4131 40.2174 36.4064 40.2174 36.3998C40.2174 36.3468 40.2108 36.2938 40.2108 36.2341C40.171 34.9221 40.0848 31.8539 37.2089 30.8732C37.189 30.8666 37.1625 30.8599 37.1426 30.8533C34.154 30.0913 31.669 28.3683 31.6425 28.3484C31.2383 28.0635 30.6817 28.1629 30.3967 28.5671C30.1118 28.9713 30.2112 29.528 30.6154 29.8129C30.728 29.8925 33.3654 31.728 36.6655 32.5762C38.2095 33.1262 38.3818 34.7763 38.4282 36.2872C38.4282 36.3468 38.4282 36.3998 38.4348 36.4528C38.4414 37.0492 38.4017 37.9703 38.2957 38.5005C37.2221 39.1101 33.0142 41.2174 26.6129 41.2174C20.2381 41.2174 16.0037 39.1035 14.9235 38.4938C14.8175 37.9637 14.7711 37.0426 14.7844 36.4462C14.7844 36.3932 14.791 36.3402 14.791 36.2805C14.8374 34.7697 15.0097 33.1196 16.5537 32.5696C19.8537 31.7214 22.4911 29.8792 22.6038 29.8063C23.008 29.5214 23.1074 28.9647 22.8225 28.5605C22.5375 28.1563 21.9809 28.0569 21.5767 28.3418C21.5502 28.3617 19.0784 30.0846 16.0766 30.8467C16.0501 30.8533 16.0302 30.8599 16.0103 30.8666C13.1343 31.8539 13.0482 34.9221 13.0084 36.2275C13.0084 36.2872 13.0084 36.3402 13.0018 36.3932C13.0018 36.3998 13.0018 36.4064 13.0018 36.4131C12.9952 36.7576 12.9886 38.527 13.3398 39.4149C13.406 39.5872 13.5253 39.733 13.6843 39.8324C13.8831 39.9649 18.6477 42.9999 26.6195 42.9999C34.5914 42.9999 39.3559 39.9583 39.5547 39.8324C39.7071 39.733 39.833 39.5872 39.8993 39.4149C40.2306 38.5336 40.224 36.7643 40.2174 36.4197Z" fill="white"/>
</g>
</svg>
