<svg width="16" height="16" viewBox="0 0 16 16" fill="none" xmlns="http://www.w3.org/2000/svg">
<path d="M9.20412 11.2366L10.2359 9.60849C10.3175 9.47971 10.2928 9.31062 10.1777 9.21055C10.0549 9.10371 9.87018 9.11068 9.75574 9.22652L8.9959 9.9958C8.89512 10.0978 8.72246 10.013 8.74165 9.8709L8.96509 8.2154C8.98896 8.03853 8.85821 7.87834 8.68012 7.86631L8.47078 7.85215C8.31346 7.84153 8.17346 7.95121 8.14612 8.10649L7.74728 10.3725C7.72509 10.4986 7.56506 10.5401 7.48434 10.4409L6.23522 8.90465C6.14878 8.79834 6.00259 8.76177 5.87631 8.81487L5.65759 8.90677C5.48444 8.97956 5.41594 9.18887 5.51256 9.34993L6.79619 11.4895C6.98206 11.7994 7.05872 12.1629 7.01225 12.5212C6.8459 13.8042 6.63925 15.0143 5.79359 15.9999H10.2062C9.30096 14.9448 9.07765 13.6325 8.95784 12.2489C8.92718 11.8935 9.01321 11.5378 9.20412 11.2366Z" fill="#1AD5B1"/>
<path fill-rule="evenodd" clip-rule="evenodd" d="M13.5149 5.0284C14.4843 5.43815 15.1646 6.39793 15.1646 7.51661C15.1646 8.96639 14.0216 10.1477 12.5878 10.2124C12.3879 10.9364 11.6159 11.4762 10.6933 11.4762C10.1705 11.4762 9.69619 11.3026 9.34663 11.0206C8.9971 11.3026 8.52275 11.4762 7.99991 11.4762C7.47707 11.4762 7.00276 11.3026 6.65319 11.0206C6.30366 11.3026 5.82935 11.4762 5.30648 11.4762C4.38392 11.4762 3.61195 10.9364 3.41204 10.2124C1.9782 10.1477 0.835205 8.96639 0.835205 7.51661C0.835205 6.39793 1.51552 5.43818 2.48495 5.0284C2.31373 4.69746 2.21645 4.32209 2.21645 3.92377C2.21645 2.59374 3.29464 1.51556 4.62467 1.51556C5.0036 1.51556 5.36195 1.60331 5.68088 1.75925C5.96429 0.744592 6.89485 0 7.99991 0C9.10497 0 10.0356 0.744592 10.3189 1.75925C10.6379 1.60334 10.9962 1.51556 11.3752 1.51556C12.7052 1.51556 13.7834 2.59374 13.7834 3.92377C13.7834 4.32209 13.6861 4.69746 13.5149 5.0284ZM6.02065 2.86844C6.28431 2.29162 6.8659 1.89062 7.54156 1.89062C8.46496 1.89062 9.21343 2.63915 9.21343 3.5625C9.21343 4.48584 4.78906 8.39458 3.86572 8.39458C2.94238 8.39458 2.19385 7.64605 2.19385 6.72271C2.19385 5.88646 2.80785 5.19365 3.6096 5.07037C3.46722 4.8244 3.38531 4.53903 3.38531 4.23437C3.38531 3.31103 4.13384 2.5625 5.05719 2.5625C5.41609 2.5625 5.74828 2.67597 6.02065 2.86844Z" fill="#1AD5B1"/>
</svg>
