<svg width="40" height="40" viewBox="0 0 40 40" fill="none" xmlns="http://www.w3.org/2000/svg">
<circle opacity="0.5" cx="20" cy="20" r="19.5" stroke="white"/>
<g clip-path="url(#clip0)">
<path d="M22.6907 14.0029V14H23.4409L23.7151 14.0548C23.8978 14.0904 24.0637 14.1371 24.2128 14.1948C24.3619 14.2525 24.5062 14.3198 24.6456 14.3968C24.7851 14.4737 24.9116 14.5521 25.0251 14.6319C25.1376 14.7108 25.2386 14.7945 25.3281 14.883C25.4165 14.9724 25.5546 14.9955 25.7421 14.9522C25.9297 14.9089 26.1316 14.8488 26.3481 14.7719C26.5645 14.6949 26.7785 14.6084 26.9901 14.5122C27.2017 14.416 27.3306 14.3549 27.3768 14.3289C27.422 14.302 27.446 14.2876 27.4489 14.2857L27.4518 14.2813L27.4662 14.2741L27.4806 14.2669L27.495 14.2597L27.5095 14.2525L27.5124 14.2481L27.5167 14.2453L27.521 14.2424L27.5239 14.2381L27.5383 14.2337L27.5528 14.2308L27.5499 14.2525L27.5455 14.2741L27.5383 14.2958L27.5311 14.3174L27.5239 14.3318L27.5167 14.3463L27.5095 14.3679C27.5047 14.3823 27.4999 14.4016 27.495 14.4256C27.4902 14.4497 27.4445 14.5458 27.358 14.7142C27.2714 14.8825 27.1632 15.0532 27.0334 15.2263C26.9035 15.3995 26.7871 15.5302 26.6842 15.6187C26.5804 15.7082 26.5116 15.7707 26.4779 15.8063C26.4442 15.8428 26.4034 15.8765 26.3553 15.9073L26.2831 15.9549L26.2687 15.9621L26.2543 15.9693L26.2514 15.9737L26.2471 15.9765L26.2427 15.9794L26.2399 15.9838L26.2254 15.991L26.211 15.9982L26.2081 16.0025L26.2038 16.0054L26.1995 16.0083L26.1966 16.0126L26.1937 16.0169L26.1894 16.0198L26.185 16.0227L26.1821 16.027H26.2543L26.6583 15.9405C26.9276 15.8828 27.1849 15.813 27.4301 15.7313L27.8197 15.6014L27.8629 15.587L27.8846 15.5798L27.899 15.5726L27.9134 15.5654L27.9279 15.5582L27.9423 15.5509L27.9711 15.5466L28 15.5437V15.5726L27.9928 15.5755L27.9856 15.5798L27.9827 15.5841L27.9784 15.587L27.974 15.5899L27.9711 15.5942L27.9683 15.5985L27.9639 15.6014L27.9596 15.6043L27.9567 15.6086L27.9538 15.613L27.9495 15.6159L27.9423 15.6303L27.9351 15.6447L27.9307 15.6476C27.9288 15.6505 27.8678 15.7322 27.7475 15.8929C27.6273 16.0545 27.5624 16.1362 27.5528 16.1381C27.5431 16.141 27.5297 16.1554 27.5124 16.1814C27.496 16.2083 27.394 16.3156 27.2065 16.5031C27.0189 16.6907 26.8352 16.8576 26.6554 17.0038C26.4746 17.1509 26.3832 17.3317 26.3813 17.5462C26.3784 17.7598 26.3673 18.0012 26.3481 18.2705C26.3288 18.5398 26.2928 18.8307 26.2399 19.1433C26.187 19.4559 26.1052 19.8094 25.9946 20.2037C25.884 20.5981 25.7493 20.9828 25.5906 21.3579C25.4319 21.733 25.266 22.0697 25.0929 22.3678C24.9197 22.666 24.761 22.9185 24.6168 23.1253C24.4725 23.3321 24.3258 23.5268 24.1767 23.7096C24.0277 23.8923 23.8391 24.0982 23.6112 24.3271C23.3823 24.555 23.2572 24.6801 23.2361 24.7022C23.214 24.7234 23.1197 24.8022 22.9533 24.9388C22.7879 25.0763 22.6099 25.2139 22.4195 25.3514C22.23 25.488 22.0559 25.602 21.8972 25.6933C21.7385 25.7847 21.5471 25.8891 21.323 26.0064C21.0999 26.1247 20.8584 26.2344 20.5987 26.3354C20.339 26.4364 20.0649 26.5301 19.7764 26.6167C19.4878 26.7033 19.2089 26.7706 18.9396 26.8187C18.6703 26.8668 18.3649 26.9076 18.0234 26.9413L17.5113 26.9918V26.999H16.5735V26.9918L16.4509 26.9846C16.3691 26.9798 16.3018 26.975 16.2489 26.9702C16.196 26.9654 15.9964 26.9389 15.6501 26.8908C15.3039 26.8427 15.0322 26.7946 14.835 26.7465C14.6378 26.6985 14.3445 26.6071 13.9549 26.4724C13.5654 26.3378 13.2321 26.2017 12.9551 26.0641C12.6791 25.9275 12.5059 25.841 12.4357 25.8044C12.3665 25.7688 12.2885 25.7246 12.202 25.6717L12.0721 25.5924L12.0693 25.588L12.0649 25.5851L12.0606 25.5823L12.0577 25.5779L12.0433 25.5707L12.0289 25.5635L12.026 25.5592L12.0216 25.5563L12.0173 25.5534L12.0144 25.5491L12.0116 25.5447L12.0072 25.5419H12V25.513L12.0144 25.5159L12.0289 25.5202L12.0938 25.5274C12.1371 25.5322 12.2549 25.5394 12.4472 25.5491C12.6396 25.5587 12.844 25.5587 13.0604 25.5491C13.2768 25.5394 13.4981 25.5178 13.7241 25.4841C13.9501 25.4505 14.217 25.3928 14.5248 25.311C14.8326 25.2293 15.1154 25.1321 15.3731 25.0196C15.63 24.9061 15.8127 24.8215 15.9214 24.7657C16.0291 24.7108 16.1936 24.6089 16.4148 24.4598L16.7466 24.2362L16.7495 24.2319L16.7538 24.229L16.7582 24.2261L16.761 24.2218L16.7639 24.2174L16.7683 24.2145L16.7726 24.2117L16.7755 24.2073L16.7899 24.203L16.8043 24.2001L16.8072 24.1857L16.8115 24.1713L16.8159 24.1684L16.8188 24.164L16.7033 24.1568C16.6264 24.152 16.5518 24.1472 16.4797 24.1424C16.4076 24.1376 16.2946 24.116 16.1407 24.0775C15.9868 24.039 15.8209 23.9813 15.6429 23.9044C15.465 23.8274 15.2919 23.736 15.1235 23.6302C14.9552 23.5244 14.8335 23.4364 14.7585 23.3662C14.6845 23.297 14.5883 23.1989 14.47 23.0719C14.3526 22.944 14.2507 22.8127 14.1641 22.678C14.0775 22.5434 13.9948 22.388 13.916 22.212L13.7962 21.9495L13.789 21.9278L13.7818 21.9062L13.7775 21.8917L13.7746 21.8773L13.7962 21.8802L13.8179 21.8845L13.9766 21.9062C14.0824 21.9206 14.2483 21.9254 14.4743 21.9206C14.7003 21.9158 14.8566 21.9062 14.9432 21.8917C15.0298 21.8773 15.0827 21.8677 15.1019 21.8629L15.1307 21.8557L15.1668 21.8485L15.2029 21.8412L15.2058 21.8369L15.2101 21.834L15.2144 21.8312L15.2173 21.8268L15.1885 21.8196L15.1596 21.8124L15.1307 21.8052L15.1019 21.798L15.073 21.7908C15.0538 21.7859 15.0201 21.7763 14.972 21.7619C14.924 21.7475 14.7941 21.6946 14.5825 21.6032C14.3709 21.5118 14.2026 21.4229 14.0775 21.3363C13.9522 21.2495 13.8327 21.1545 13.7197 21.0521C13.6072 20.9482 13.4836 20.8145 13.349 20.651C13.2143 20.4875 13.0941 20.2975 12.9883 20.0811C12.8825 19.8647 12.8031 19.6579 12.7502 19.4607C12.6975 19.2647 12.6628 19.0643 12.6464 18.862L12.6204 18.559L12.6348 18.5619L12.6492 18.5662L12.6637 18.5735L12.6781 18.5807L12.6925 18.5879L12.7069 18.5951L12.9306 18.6961C13.0797 18.7634 13.2648 18.8211 13.486 18.8692C13.7073 18.9173 13.8395 18.9438 13.8828 18.9486L13.9477 18.9558H14.0775L14.0747 18.9515L14.0703 18.9486L14.066 18.9457L14.0631 18.9414L14.0602 18.937L14.0559 18.9341L14.0516 18.9313L14.0487 18.9269L14.0343 18.9197L14.0198 18.9125L14.017 18.9082L14.0126 18.9053L14.0083 18.9024L14.0054 18.8981L13.991 18.8909L13.9766 18.8836L13.9737 18.8793C13.9708 18.8774 13.9294 18.8466 13.8496 18.787C13.7707 18.7264 13.688 18.648 13.6014 18.5518C13.5149 18.4556 13.4283 18.3546 13.3417 18.2488C13.255 18.1428 13.1778 18.0294 13.1109 17.9098C13.0436 17.7896 12.9724 17.6366 12.8974 17.451C12.8233 17.2663 12.7671 17.0802 12.7286 16.8927C12.6901 16.7051 12.6685 16.52 12.6637 16.3372C12.6589 16.1545 12.6637 15.9982 12.6781 15.8683C12.6925 15.7385 12.7214 15.5918 12.7647 15.4283C12.8079 15.2648 12.8705 15.0917 12.9522 14.9089L13.0748 14.6348L13.0821 14.6132L13.0893 14.5915L13.0936 14.5886L13.0965 14.5843L13.0994 14.58L13.1037 14.5771L13.108 14.58L13.1109 14.5843L13.1138 14.5886L13.1181 14.5915L13.1225 14.5944L13.1253 14.5987L13.1282 14.6031L13.1326 14.6059L13.1398 14.6204L13.147 14.6348L13.1513 14.6377L13.1542 14.642L13.349 14.8584C13.4788 15.0027 13.6327 15.1638 13.8106 15.3417C13.9886 15.5197 14.0872 15.612 14.1064 15.6187C14.1256 15.6264 14.1497 15.6486 14.1785 15.6851C14.2074 15.7207 14.3036 15.8058 14.4671 15.9405C14.6306 16.0751 14.8446 16.2314 15.1091 16.4094C15.3736 16.5873 15.667 16.7628 15.9892 16.936C16.3114 17.1091 16.6577 17.2654 17.028 17.4048C17.3983 17.5443 17.658 17.6357 17.807 17.679C17.9561 17.7222 18.211 17.7775 18.5717 17.8449C18.9324 17.9122 19.2041 17.9555 19.3868 17.9747C19.5696 17.994 19.6946 18.005 19.7619 18.0079L19.8629 18.0108L19.8601 17.9892L19.8557 17.9675L19.8269 17.7872C19.8076 17.6669 19.798 17.4986 19.798 17.2822C19.798 17.0658 19.8149 16.8662 19.8485 16.6835C19.8822 16.5007 19.9327 16.3156 20 16.128C20.0673 15.9405 20.1332 15.7899 20.1977 15.6765C20.2631 15.5639 20.3487 15.4355 20.4545 15.2912C20.5603 15.147 20.6973 14.9979 20.8656 14.844C21.034 14.6901 21.2263 14.553 21.4427 14.4328C21.6592 14.3126 21.8587 14.2212 22.0415 14.1587C22.2242 14.0962 22.3781 14.0553 22.5032 14.0361C22.6282 14.0168 22.6907 14.0058 22.6907 14.0029Z" fill="white"/>
</g>
<defs>
<clipPath id="clip0">
<rect width="16" height="12.9984" fill="white" transform="translate(12 14)"/>
</clipPath>
</defs>
</svg>
