<svg width="13" height="16" viewBox="0 0 13 16" fill="none" xmlns="http://www.w3.org/2000/svg">
<path d="M0.305524 7.70369C0.0491332 8.11943 -0.0583441 9.42697 0.0310045 10.2939C0.0620822 10.5798 0.113878 10.8184 0.187688 10.9614C0.289986 11.1581 0.462208 11.2761 0.657739 11.2827C0.783345 11.2893 0.862334 11.267 3.22554 10.4971C3.22554 10.4971 4.27571 10.1575 4.28089 10.1548C4.54246 10.0866 4.71986 9.84271 4.73669 9.53189C4.75353 9.21189 4.59166 8.92992 4.32232 8.82894C4.32232 8.82894 3.58164 8.52336 3.58034 8.52336C1.03974 7.46238 0.925784 7.42041 0.797589 7.4191C0.600763 7.41254 0.427246 7.51222 0.305524 7.70369ZM5.98757 15.6106C6.02901 15.4899 6.03419 15.4073 6.04066 12.8919C6.04066 12.8919 6.04584 11.7811 6.04714 11.7693C6.06397 11.4965 5.89045 11.2486 5.60557 11.1371C5.31163 11.023 4.99567 11.0939 4.81827 11.3168C4.81827 11.3168 4.30031 11.9398 4.29772 11.9398C2.51852 14.0565 2.44341 14.1548 2.40068 14.2794C2.37349 14.3529 2.36442 14.4316 2.37219 14.5102C2.38255 14.623 2.43305 14.7332 2.51593 14.8368C2.929 15.3339 4.90762 16.0709 5.53953 15.9607C5.76096 15.9227 5.92024 15.7981 5.98757 15.6106ZM10.0031 14.7358C10.6 14.4945 11.9014 12.8184 11.9933 12.1719C12.0257 11.9476 11.9558 11.7535 11.803 11.6302C11.7033 11.5542 11.6269 11.524 9.26368 10.7384C9.26368 10.7384 8.22776 10.3922 8.21351 10.3857C7.9623 10.2873 7.67613 10.3791 7.48448 10.6191C7.28377 10.8657 7.25399 11.1922 7.41456 11.4375L7.83152 12.1247C9.2339 14.4316 9.34138 14.5942 9.44238 14.6742C9.59777 14.7988 9.79589 14.8198 10.0031 14.7358ZM8.78198 8.79746C11.4663 8.1391 11.5712 8.10369 11.6761 8.03287C11.8393 7.9214 11.9208 7.73648 11.9066 7.5109C11.9066 7.50435 11.9079 7.49648 11.9066 7.48861C11.838 6.81976 10.6829 5.08336 10.1131 4.8014C9.91114 4.70303 9.70913 4.70959 9.54209 4.82369C9.4385 4.89189 9.3621 4.99549 7.92475 6.98763C7.92475 6.98763 7.276 7.88336 7.26823 7.89254C7.09731 8.10369 7.09472 8.40533 7.26176 8.665C7.43528 8.93386 7.72792 9.06369 7.99597 8.98894C7.99597 8.98894 7.98561 9.00861 7.98302 9.01123C8.1151 8.96008 8.35077 8.90107 8.78198 8.79746ZM6.08728 6.55222C6.04066 5.47418 5.72082 0.675495 5.68327 0.453855C5.62888 0.251888 5.47349 0.108937 5.25077 0.0512325C4.56447 -0.120571 1.94488 0.623036 1.45929 1.12927C1.3026 1.29451 1.24563 1.49648 1.29224 1.67615C1.36864 1.83484 4.61497 7.0073 4.61497 7.0073C5.09409 7.79549 5.48644 7.67222 5.61464 7.63156C5.74154 7.59353 6.13131 7.47025 6.08728 6.55222Z" fill="white"/>
</svg>
