<svg width="40" height="40" viewBox="0 0 40 40" fill="none" xmlns="http://www.w3.org/2000/svg">
<circle opacity="0.5" cx="20" cy="20" r="19.5" stroke="white"/>
<path d="M14.3056 19.7037C14.0493 20.1194 13.9418 21.427 14.0311 22.2939C14.0622 22.5798 14.114 22.8184 14.1878 22.9614C14.2901 23.1581 14.4623 23.2761 14.6579 23.2827C14.7835 23.2893 14.8625 23.267 17.2257 22.4971C17.2257 22.4971 18.2758 22.1575 18.281 22.1548C18.5426 22.0866 18.72 21.8427 18.7368 21.5319C18.7536 21.2119 18.5918 20.9299 18.3224 20.8289C18.3224 20.8289 17.5818 20.5234 17.5805 20.5234C15.0399 19.4624 14.9259 19.4204 14.7977 19.4191C14.6009 19.4125 14.4274 19.5122 14.3056 19.7037ZM19.9877 27.6106C20.0291 27.4899 20.0343 27.4073 20.0408 24.8919C20.0408 24.8919 20.046 23.7811 20.0473 23.7693C20.0641 23.4965 19.8906 23.2486 19.6057 23.1371C19.3118 23.023 18.9958 23.0939 18.8184 23.3168C18.8184 23.3168 18.3004 23.9398 18.2978 23.9398C16.5186 26.0565 16.4435 26.1548 16.4008 26.2794C16.3736 26.3529 16.3645 26.4316 16.3723 26.5102C16.3827 26.623 16.4332 26.7332 16.5161 26.8368C16.9291 27.3339 18.9077 28.0709 19.5397 27.9607C19.7611 27.9227 19.9204 27.7981 19.9877 27.6106ZM24.0032 26.7358C24.6001 26.4945 25.9015 24.8184 25.9935 24.1719C26.0258 23.9476 25.9559 23.7535 25.8031 23.6302C25.7034 23.5542 25.627 23.524 23.2638 22.7384C23.2638 22.7384 22.2279 22.3922 22.2136 22.3857C21.9624 22.2873 21.6763 22.3791 21.4846 22.6191C21.2839 22.8657 21.2541 23.1922 21.4147 23.4375L21.8316 24.1247C23.234 26.4316 23.3415 26.5942 23.4425 26.6742C23.5979 26.7988 23.796 26.8198 24.0032 26.7358ZM22.7821 20.7975C25.4664 20.1391 25.5713 20.1037 25.6762 20.0329C25.8394 19.9214 25.921 19.7365 25.9067 19.5109C25.9067 19.5043 25.908 19.4965 25.9067 19.4886C25.8381 18.8198 24.683 17.0834 24.1133 16.8014C23.9113 16.703 23.7093 16.7096 23.5422 16.8237C23.4386 16.8919 23.3622 16.9955 21.9249 18.9876C21.9249 18.9876 21.2761 19.8834 21.2684 19.8925C21.0974 20.1037 21.0948 20.4053 21.2619 20.665C21.4354 20.9339 21.728 21.0637 21.9961 20.9889C21.9961 20.9889 21.9857 21.0086 21.9831 21.0112C22.1152 20.9601 22.3509 20.9011 22.7821 20.7975ZM20.0874 18.5522C20.0408 17.4742 19.7209 12.6755 19.6834 12.4539C19.629 12.2519 19.4736 12.1089 19.2509 12.0512C18.5646 11.8794 15.945 12.623 15.4594 13.1293C15.3027 13.2945 15.2457 13.4965 15.2924 13.6762C15.3688 13.8348 18.6151 19.0073 18.6151 19.0073C19.0942 19.7955 19.4866 19.6722 19.6148 19.6316C19.7417 19.5935 20.1314 19.4702 20.0874 18.5522Z" fill="white"/>
</svg>
