<svg width="40" height="40" viewBox="0 0 40 40" fill="none" xmlns="http://www.w3.org/2000/svg">
<g clip-path="url(#clip0)">
<path d="M5.3427 14.7042C1.96106 20.5724 4.11083 29.4777 7.85037 34.8773C9.71699 37.5768 11.6068 40 14.1953 40C14.2441 40 14.293 39.9991 14.3431 39.9971C15.5592 39.9486 16.438 39.5742 17.2877 39.2124C18.2417 38.8058 19.2283 38.3855 20.7759 38.3855C22.2481 38.3855 23.1877 38.7922 24.0963 39.1853C24.9917 39.5728 25.9141 39.9735 27.277 39.948C30.1927 39.8937 31.9828 37.2788 33.5622 34.9721C35.2104 32.5636 36.0371 30.2251 36.3161 29.3314L36.3274 29.2959C36.3805 29.1371 36.3055 28.9637 36.1532 28.8938C36.149 28.8918 36.1335 28.8854 36.1292 28.8836C35.6157 28.6736 31.1119 26.6756 31.0645 21.2298C31.0206 16.8054 34.4433 14.4625 35.1297 14.0378L35.1617 14.0179C35.2361 13.97 35.2879 13.8941 35.3055 13.8072C35.323 13.7206 35.3047 13.6303 35.2548 13.5574C32.8923 10.1001 29.2714 9.57904 27.8135 9.51636C27.602 9.49524 27.3836 9.48462 27.1643 9.48462C25.4521 9.48462 23.8118 10.1313 22.494 10.6509C21.5844 11.0096 20.7987 11.3194 20.2568 11.3194C19.6479 11.3194 18.8577 11.0058 17.9427 10.6428C16.7191 10.1571 15.3322 9.60685 13.864 9.60685C13.829 9.60685 13.7945 9.60724 13.7605 9.6079C10.3468 9.65813 7.12106 11.6112 5.3427 14.7042Z" fill="white"/>
<path d="M27.8166 0.000251991C25.7493 0.0844487 23.2694 1.35697 21.7872 3.0931C20.5275 4.55238 19.297 6.98543 19.6212 9.43789C19.6415 9.59133 19.7664 9.70976 19.9207 9.72169C20.0603 9.73258 20.2027 9.73809 20.3446 9.73822C22.366 9.73822 24.5466 8.61992 26.0357 6.81927C27.6031 4.91789 28.3956 2.47776 28.1559 0.292055C28.137 0.120777 27.9863 -0.00643653 27.8166 0.000251991Z" fill="white"/>
</g>
<defs>
<clipPath id="clip0">
<rect width="40" height="40" fill="white"/>
</clipPath>
</defs>
</svg>
