<svg width="80" height="80" viewBox="0 0 80 80" fill="none" xmlns="http://www.w3.org/2000/svg">
<g clip-path="url(#clip0)">
<path d="M24.4362 40.9487C26.3292 42.5724 28.4747 44.4128 32.6248 44.4128C36.775 44.4128 38.9206 42.5724 40.8136 40.9487C42.6039 39.4132 44.15 38.087 47.3749 38.087C50.5998 38.087 52.146 39.4132 53.9362 40.9487C54.4602 41.3982 55.2493 41.3378 55.6988 40.8138C56.1482 40.2897 56.0878 39.5006 55.5638 39.0512C53.6707 37.4275 51.5251 35.587 47.3749 35.587C43.2247 35.587 41.0791 37.4274 39.186 39.0512C37.3958 40.5867 35.8496 41.9128 32.6248 41.9128C29.4 41.9128 27.854 40.5867 26.0639 39.0512C25.5399 38.6017 24.7508 38.662 24.3013 39.1861C23.8518 39.7101 23.9122 40.4993 24.4362 40.9487Z" fill="#1AD5B1"/>
<path d="M24.4362 34.1117C26.3291 35.7354 28.4746 37.5758 32.6248 37.5758C36.775 37.5758 38.9206 35.7354 40.8136 34.1117C42.6039 32.5762 44.15 31.25 47.3749 31.25C50.5997 31.25 52.1458 32.5761 53.9362 34.1117C54.4602 34.5613 55.2493 34.5007 55.6987 33.9766C56.1482 33.4526 56.0877 32.6634 55.5637 32.214C53.6706 30.5902 51.525 28.75 47.3749 28.75C43.2247 28.75 41.0791 30.5904 39.186 32.2141C37.3958 33.7496 35.8496 35.0758 32.6248 35.0758C29.4 35.0758 27.854 33.7497 26.0639 32.2141C25.5399 31.7646 24.7507 31.825 24.3013 32.3491C23.8518 32.8731 23.9122 33.6623 24.4362 34.1117Z" fill="white"/>
<path d="M55.5638 45.8883C53.6707 44.2646 51.5251 42.4242 47.3749 42.4242C43.2247 42.4242 41.0791 44.2646 39.186 45.8883C37.3958 47.4238 35.8496 48.75 32.6248 48.75C29.4001 48.75 27.8541 47.4239 26.064 45.8884L26.0638 45.8883C25.5398 45.439 24.7508 45.4994 24.3013 46.0233C23.8518 46.5473 23.9123 47.3365 24.4363 47.7859C26.3293 49.4097 28.4748 51.25 32.6248 51.25C36.775 51.25 38.9206 49.4096 40.8136 47.7859C42.6039 46.2504 44.15 44.9242 47.3749 44.9242C50.5998 44.9242 52.146 46.2504 53.9361 47.7859C54.4602 48.2353 55.2493 48.1749 55.6988 47.6509C56.1482 47.1269 56.0878 46.3378 55.5638 45.8883Z" fill="white"/>
</g>
<circle opacity="0.5" cx="40" cy="40" r="39" stroke="white" stroke-width="2"/>
<defs>
<clipPath id="clip0">
<rect width="32" height="32" fill="white" transform="translate(24 24)"/>
</clipPath>
</defs>
</svg>
