<svg width="184" height="120" viewBox="0 0 184 120" fill="none" xmlns="http://www.w3.org/2000/svg">
<path d="M181.305 114.506H178.052C176.731 104.573 168.361 96.8895 158.258 96.8895C156.55 96.8895 154.846 97.1177 153.175 97.5693C151.112 96.2343 148.882 95.2563 146.55 94.6564V74.3497L154.403 66.346C155.455 65.2732 155.455 63.5341 154.403 62.4613C153.35 61.3885 151.643 61.3885 150.591 62.4613L146.55 66.58V58.5316C146.55 57.0145 145.343 55.7846 143.855 55.7846C142.366 55.7846 141.159 57.0145 141.159 58.5316V79.1086C129.615 77.7424 120.622 67.7217 120.622 55.5956C120.622 42.5396 131.044 31.9182 143.855 31.9182C156.665 31.9182 167.086 42.54 167.086 55.5956C167.086 64.6498 162.141 72.7795 154.18 76.8125C152.847 77.4879 152.303 79.1365 152.966 80.4949C153.629 81.8534 155.246 82.4076 156.579 81.7322C166.385 76.7645 172.477 66.7496 172.477 55.5956C172.477 39.5102 159.637 26.4241 143.855 26.4241C128.072 26.4241 115.232 39.5105 115.232 55.5956C115.232 70.754 126.636 83.2445 141.159 84.6338V93.9568C141.097 93.9564 141.036 93.9535 140.974 93.9535C129.28 93.9535 119.616 102.949 118.277 114.506H97.5764V102.384H112.166C112.965 102.384 113.723 102.022 114.235 101.397C114.747 100.771 114.961 99.9468 114.818 99.1454L97.5326 2.25549C97.2997 0.949371 96.1835 0 94.8807 0C93.578 0 92.4622 0.949371 92.2289 2.25549L88.7009 22.0307C81.8318 15.4393 72.7842 11.7441 63.1918 11.7441C46.8442 11.7441 32.922 22.5288 27.913 37.4836L25.4991 25.6751C25.2385 24.4012 24.1371 23.4885 22.8606 23.4885C21.5841 23.4885 20.4822 24.4012 20.222 25.6751L5.81828 96.1405C5.65297 96.95 5.85386 97.7924 6.36561 98.4337C6.87736 99.0751 7.6457 99.4475 8.45681 99.4475H20.1656V114.506H2.69531C1.20678 114.506 0 115.736 0 117.253C0 118.77 1.20678 120 2.69531 120H181.305C182.793 120 184 118.77 184 117.253C184 115.736 182.793 114.506 181.305 114.506ZM140.973 99.4479C144.637 99.4479 148.157 100.609 151.152 102.805C151.858 103.323 152.766 103.461 153.589 103.178C155.118 102.651 156.689 102.384 158.258 102.384C165.382 102.384 171.326 107.616 172.594 114.506H123.712C125.012 105.988 132.257 99.4479 140.973 99.4479ZM92.1854 114.506H77.1963C76.1968 108.103 71.764 102.855 65.8875 100.782V87.602C69.8941 87.3072 73.8167 86.3556 77.5046 84.7935L74.9441 99.1457C74.801 99.9471 75.0145 100.772 75.5266 101.397C76.0387 102.022 76.7966 102.384 77.5959 102.384H92.1854V114.506ZM65.8875 106.762C68.7743 108.362 70.928 111.166 71.7032 114.506H65.8875V106.762ZM60.4968 114.506H37.5015C38.6436 110.885 41.9793 108.256 45.9069 108.256C47.1213 108.256 48.3165 108.517 49.4593 109.031C50.4433 109.474 51.5915 109.278 52.3803 108.532C54.5722 106.461 57.389 105.32 60.3107 105.32C60.3728 105.32 60.4343 105.324 60.4961 105.325V114.506H60.4968ZM94.8807 18.1032L108.936 96.8899H97.5761V90.8289C97.5761 89.3118 96.3693 88.0819 94.8807 88.0819C93.3922 88.0819 92.1854 89.3118 92.1854 90.8289V96.8899H80.8256L94.8807 18.1032ZM11.7717 93.9539L22.8609 39.7043L33.9502 93.9539H25.5562V87.8929C25.5562 86.3758 24.3495 85.1458 22.8609 85.1458C21.3724 85.1458 20.1656 86.3758 20.1656 87.8929V93.9539H11.7717ZM25.5562 99.4479H37.265C38.0761 99.4479 38.8445 99.0754 39.3562 98.4341C39.868 97.7927 40.0692 96.9503 39.9036 96.1409L35.6392 75.2797C39.6915 79.8272 44.8417 83.4061 50.7718 85.5421C51.0686 85.6491 51.3719 85.7 51.6699 85.7C52.7803 85.7 53.82 84.9953 54.211 83.8676C54.7069 82.4373 53.9713 80.8678 52.5679 80.3624C39.8576 75.784 31.3177 63.4715 31.3177 49.7243C31.3177 31.8116 45.6166 17.2385 63.1921 17.2385C72.6182 17.2385 81.4297 21.4114 87.5082 28.7195L78.6967 78.1127C74.7586 80.3506 70.3893 81.7022 65.8875 82.0897V76.1499C65.8875 76.1492 65.8875 76.1488 65.8875 76.1481V61.4687C65.8875 59.9517 64.6807 58.7217 63.1921 58.7217C61.7036 58.7217 60.4968 59.9517 60.4968 61.4687V69.5171L56.4557 65.3984C55.403 64.3256 53.6964 64.3256 52.6441 65.3984C51.5915 66.4713 51.5915 68.2103 52.6441 69.2831L60.4972 77.2868V99.8314C60.435 99.8307 60.3739 99.8266 60.3118 99.8266C56.5872 99.8266 52.9895 101.081 50.016 103.39C48.6799 102.973 47.3042 102.763 45.9076 102.763C38.9893 102.763 33.212 107.826 31.9488 114.507H25.5562V99.4479Z" fill="#1AD5B1"/>
</svg>
