<svg width="40" height="40" viewBox="0 0 40 40" fill="none" xmlns="http://www.w3.org/2000/svg">
<circle opacity="0.5" cx="20" cy="20" r="19.5" stroke="white"/>
<path d="M17.3338 20C17.3338 18.5273 18.5273 17.3331 20 17.3331C21.4727 17.3331 22.6669 18.5273 22.6669 20C22.6669 21.4727 21.4727 22.6669 20 22.6669C18.5273 22.6669 17.3338 21.4727 17.3338 20ZM15.8921 20C15.8921 22.2688 17.7312 24.1079 20 24.1079C22.2688 24.1079 24.1079 22.2688 24.1079 20C24.1079 17.7312 22.2688 15.8921 20 15.8921C17.7312 15.8921 15.8921 17.7312 15.8921 20ZM23.3105 15.7292C23.3105 15.9191 23.3667 16.1047 23.4721 16.2626C23.5775 16.4205 23.7274 16.5436 23.9028 16.6164C24.0782 16.6891 24.2712 16.7082 24.4574 16.6712C24.6437 16.6343 24.8148 16.5429 24.9491 16.4087C25.0834 16.2745 25.1749 16.1035 25.212 15.9173C25.2491 15.7311 25.2302 15.538 25.1576 15.3626C25.085 15.1871 24.962 15.0372 24.8042 14.9316C24.6464 14.8261 24.4608 14.7697 24.2709 14.7696H24.2705C24.016 14.7697 23.772 14.8708 23.592 15.0508C23.412 15.2307 23.3107 15.4747 23.3105 15.7292ZM16.768 26.5118C15.988 26.4763 15.5641 26.3464 15.2824 26.2366C14.9089 26.0912 14.6424 25.918 14.3622 25.6382C14.082 25.3584 13.9085 25.0922 13.7638 24.7187C13.654 24.4371 13.524 24.013 13.4886 23.233C13.4498 22.3898 13.442 22.1364 13.442 20.0001C13.442 17.8637 13.4504 17.6111 13.4886 16.7671C13.5241 15.9871 13.655 15.5639 13.7638 15.2815C13.9092 14.908 14.0824 14.6415 14.3622 14.3613C14.642 14.0811 14.9082 13.9076 15.2824 13.7629C15.564 13.6531 15.988 13.5231 16.768 13.4877C17.6113 13.4489 17.8646 13.4412 20 13.4412C22.1354 13.4412 22.389 13.4495 23.233 13.4877C24.0129 13.5232 24.4362 13.6541 24.7186 13.7629C25.0921 13.9076 25.3586 14.0815 25.6388 14.3613C25.919 14.6411 26.0918 14.908 26.2372 15.2815C26.347 15.5631 26.4769 15.9871 26.5124 16.7671C26.5512 17.6111 26.5589 17.8637 26.5589 20.0001C26.5589 22.1364 26.5512 22.3891 26.5124 23.233C26.4769 24.013 26.3463 24.4369 26.2372 24.7187C26.0918 25.0922 25.9186 25.3587 25.6388 25.6382C25.359 25.9178 25.0921 26.0912 24.7186 26.2366C24.437 26.3464 24.0129 26.4764 23.233 26.5118C22.3897 26.5506 22.1364 26.5583 20 26.5583C17.8636 26.5583 17.611 26.5506 16.768 26.5118ZM16.7018 12.0484C15.8501 12.0872 15.2682 12.2223 14.7599 12.42C14.2336 12.6243 13.788 12.8982 13.3428 13.3428C12.8975 13.7873 12.6243 14.2336 12.42 14.7599C12.2223 15.2685 12.0872 15.8501 12.0484 16.7018C12.009 17.5548 12 17.8275 12 20C12 22.1725 12.009 22.4452 12.0484 23.2982C12.0872 24.15 12.2223 24.7315 12.42 25.2401C12.6243 25.7661 12.8976 26.2129 13.3428 26.6572C13.788 27.1016 14.2336 27.3752 14.7599 27.58C15.2691 27.7777 15.8501 27.9128 16.7018 27.9516C17.5552 27.9903 17.8275 28 20 28C22.1725 28 22.4452 27.991 23.2982 27.9516C24.15 27.9128 24.7315 27.7777 25.2401 27.58C25.7661 27.3752 26.212 27.1018 26.6572 26.6572C27.1025 26.2127 27.3752 25.7661 27.58 25.2401C27.7777 24.7315 27.9134 24.1499 27.9516 23.2982C27.9903 22.4446 27.9994 22.1725 27.9994 20C27.9994 17.8275 27.9903 17.5548 27.9516 16.7018C27.9128 15.85 27.7777 15.2682 27.58 14.7599C27.3752 14.2339 27.1018 13.788 26.6572 13.3428C26.2127 12.8975 25.7661 12.6243 25.2407 12.42C24.7315 12.2223 24.1499 12.0866 23.2989 12.0484C22.4459 12.0097 22.1732 12 20.0006 12C17.8281 12 17.5552 12.009 16.7018 12.0484Z" fill="white"/>
<path d="M17.3338 20C17.3338 18.5273 18.5273 17.3331 20 17.3331C21.4727 17.3331 22.6669 18.5273 22.6669 20C22.6669 21.4727 21.4727 22.6669 20 22.6669C18.5273 22.6669 17.3338 21.4727 17.3338 20ZM15.8921 20C15.8921 22.2688 17.7312 24.1079 20 24.1079C22.2688 24.1079 24.1079 22.2688 24.1079 20C24.1079 17.7312 22.2688 15.8921 20 15.8921C17.7312 15.8921 15.8921 17.7312 15.8921 20ZM23.3105 15.7292C23.3105 15.9191 23.3667 16.1047 23.4721 16.2626C23.5775 16.4205 23.7274 16.5436 23.9028 16.6164C24.0782 16.6891 24.2712 16.7082 24.4574 16.6712C24.6437 16.6343 24.8148 16.5429 24.9491 16.4087C25.0834 16.2745 25.1749 16.1035 25.212 15.9173C25.2491 15.7311 25.2302 15.538 25.1576 15.3626C25.085 15.1871 24.962 15.0372 24.8042 14.9316C24.6464 14.8261 24.4608 14.7697 24.2709 14.7696H24.2705C24.016 14.7697 23.772 14.8708 23.592 15.0508C23.412 15.2307 23.3107 15.4747 23.3105 15.7292ZM16.768 26.5118C15.988 26.4763 15.5641 26.3464 15.2824 26.2366C14.9089 26.0912 14.6424 25.918 14.3622 25.6382C14.082 25.3584 13.9085 25.0922 13.7638 24.7187C13.654 24.4371 13.524 24.013 13.4886 23.233C13.4498 22.3898 13.442 22.1364 13.442 20.0001C13.442 17.8637 13.4504 17.6111 13.4886 16.7671C13.5241 15.9871 13.655 15.5639 13.7638 15.2815C13.9092 14.908 14.0824 14.6415 14.3622 14.3613C14.642 14.0811 14.9082 13.9076 15.2824 13.7629C15.564 13.6531 15.988 13.5231 16.768 13.4877C17.6113 13.4489 17.8646 13.4412 20 13.4412C22.1354 13.4412 22.389 13.4495 23.233 13.4877C24.0129 13.5232 24.4362 13.6541 24.7186 13.7629C25.0921 13.9076 25.3586 14.0815 25.6388 14.3613C25.919 14.6411 26.0918 14.908 26.2372 15.2815C26.347 15.5631 26.4769 15.9871 26.5124 16.7671C26.5512 17.6111 26.5589 17.8637 26.5589 20.0001C26.5589 22.1364 26.5512 22.3891 26.5124 23.233C26.4769 24.013 26.3463 24.4369 26.2372 24.7187C26.0918 25.0922 25.9186 25.3587 25.6388 25.6382C25.359 25.9178 25.0921 26.0912 24.7186 26.2366C24.437 26.3464 24.0129 26.4764 23.233 26.5118C22.3897 26.5506 22.1364 26.5583 20 26.5583C17.8636 26.5583 17.611 26.5506 16.768 26.5118ZM16.7018 12.0484C15.8501 12.0872 15.2682 12.2223 14.7599 12.42C14.2336 12.6243 13.788 12.8982 13.3428 13.3428C12.8975 13.7873 12.6243 14.2336 12.42 14.7599C12.2223 15.2685 12.0872 15.8501 12.0484 16.7018C12.009 17.5548 12 17.8275 12 20C12 22.1725 12.009 22.4452 12.0484 23.2982C12.0872 24.15 12.2223 24.7315 12.42 25.2401C12.6243 25.7661 12.8976 26.2129 13.3428 26.6572C13.788 27.1016 14.2336 27.3752 14.7599 27.58C15.2691 27.7777 15.8501 27.9128 16.7018 27.9516C17.5552 27.9903 17.8275 28 20 28C22.1725 28 22.4452 27.991 23.2982 27.9516C24.15 27.9128 24.7315 27.7777 25.2401 27.58C25.7661 27.3752 26.212 27.1018 26.6572 26.6572C27.1025 26.2127 27.3752 25.7661 27.58 25.2401C27.7777 24.7315 27.9134 24.1499 27.9516 23.2982C27.9903 22.4446 27.9994 22.1725 27.9994 20C27.9994 17.8275 27.9903 17.5548 27.9516 16.7018C27.9128 15.85 27.7777 15.2682 27.58 14.7599C27.3752 14.2339 27.1018 13.788 26.6572 13.3428C26.2127 12.8975 25.7661 12.6243 25.2407 12.42C24.7315 12.2223 24.1499 12.0866 23.2989 12.0484C22.4459 12.0097 22.1732 12 20.0006 12C17.8281 12 17.5552 12.009 16.7018 12.0484Z" fill="white"/>
</svg>
